<mxfile host="Electron" agent="Mozilla/5.0 (Windows NT 10.0; Win64; x64) AppleWebKit/537.36 (KHTML, like Gecko) draw.io/26.0.16 Chrome/132.0.6834.196 Electron/34.2.0 Safari/537.36" version="26.0.16">
  <diagram name="Page-1" id="cmiRLPd9M64iUV9V8Ofk">
    <mxGraphModel dx="2284" dy="884" grid="1" gridSize="10" guides="1" tooltips="1" connect="1" arrows="1" fold="1" page="1" pageScale="1" pageWidth="850" pageHeight="1100" math="0" shadow="0">
      <root>
        <mxCell id="0" />
        <mxCell id="1" parent="0" />
        <mxCell id="a53vQvWttHW8f18Grv44-1" value="&lt;span&gt;TOKYO OLYMPICS DATA WAREHOUSE&lt;/span&gt;" style="rounded=1;whiteSpace=wrap;html=1;fillColor=#f8cecc;strokeColor=#b85450;fontSize=20;fontStyle=1;labelBackgroundColor=none;textShadow=0;fontFamily=Verdana;gradientColor=#ea6b66;" parent="1" vertex="1">
          <mxGeometry x="-360" y="40" width="520" height="60" as="geometry" />
        </mxCell>
        <mxCell id="a53vQvWttHW8f18Grv44-2" value="" style="rounded=0;whiteSpace=wrap;html=1;fillColor=#fff2cc;gradientColor=#ffd966;strokeColor=#d6b656;shadow=1;" parent="1" vertex="1">
          <mxGeometry x="-360" y="250" width="200" height="430" as="geometry" />
        </mxCell>
        <mxCell id="a53vQvWttHW8f18Grv44-3" value="person_name" style="rounded=1;whiteSpace=wrap;html=1;fillColor=#dae8fc;gradientColor=#7ea6e0;strokeColor=#6c8ebf;glass=0;shadow=1;fontSize=16;align=center;fontStyle=2;horizontal=1;" parent="1" vertex="1">
          <mxGeometry x="-325" y="265" width="120" height="40" as="geometry" />
        </mxCell>
        <mxCell id="a53vQvWttHW8f18Grv44-4" value="country" style="rounded=1;whiteSpace=wrap;html=1;fillColor=#dae8fc;gradientColor=#7ea6e0;strokeColor=#6c8ebf;glass=0;shadow=1;fontSize=16;align=center;fontStyle=2;horizontal=1;" parent="1" vertex="1">
          <mxGeometry x="-325" y="325" width="120" height="40" as="geometry" />
        </mxCell>
        <mxCell id="a53vQvWttHW8f18Grv44-5" value="discipline" style="rounded=1;whiteSpace=wrap;html=1;fillColor=#dae8fc;gradientColor=#7ea6e0;strokeColor=#6c8ebf;glass=0;shadow=1;fontSize=16;align=center;fontStyle=2;horizontal=1;" parent="1" vertex="1">
          <mxGeometry x="-325" y="385" width="120" height="40" as="geometry" />
        </mxCell>
        <mxCell id="a53vQvWttHW8f18Grv44-6" value="ATHLETES" style="rounded=1;whiteSpace=wrap;html=1;fontStyle=1;fillColor=#fff2cc;gradientColor=#ffd966;strokeColor=#d6b656;fontSize=17;" parent="1" vertex="1">
          <mxGeometry x="-360" y="160" width="200" height="60" as="geometry" />
        </mxCell>
        <mxCell id="a53vQvWttHW8f18Grv44-7" value="" style="rounded=0;whiteSpace=wrap;html=1;fillColor=#fff2cc;gradientColor=#ffd966;strokeColor=#d6b656;shadow=1;" parent="1" vertex="1">
          <mxGeometry x="-120" y="250" width="200" height="430" as="geometry" />
        </mxCell>
        <mxCell id="a53vQvWttHW8f18Grv44-8" value="team_name" style="rounded=1;whiteSpace=wrap;html=1;fillColor=#dae8fc;gradientColor=#7ea6e0;strokeColor=#6c8ebf;glass=0;shadow=1;fontSize=16;align=center;fontStyle=2;horizontal=1;" parent="1" vertex="1">
          <mxGeometry x="-80" y="265" width="120" height="40" as="geometry" />
        </mxCell>
        <mxCell id="a53vQvWttHW8f18Grv44-9" value="country" style="rounded=1;whiteSpace=wrap;html=1;fillColor=#dae8fc;gradientColor=#7ea6e0;strokeColor=#6c8ebf;glass=0;shadow=1;fontSize=16;align=center;fontStyle=2;horizontal=1;" parent="1" vertex="1">
          <mxGeometry x="-80" y="385" width="120" height="40" as="geometry" />
        </mxCell>
        <mxCell id="a53vQvWttHW8f18Grv44-10" value="discipline" style="rounded=1;whiteSpace=wrap;html=1;fillColor=#dae8fc;gradientColor=#7ea6e0;strokeColor=#6c8ebf;glass=0;shadow=1;fontSize=16;align=center;fontStyle=2;horizontal=1;" parent="1" vertex="1">
          <mxGeometry x="-80" y="325" width="120" height="40" as="geometry" />
        </mxCell>
        <mxCell id="a53vQvWttHW8f18Grv44-11" value="TEAMS" style="rounded=1;whiteSpace=wrap;html=1;fontStyle=1;fillColor=#fff2cc;gradientColor=#ffd966;strokeColor=#d6b656;fontSize=17;" parent="1" vertex="1">
          <mxGeometry x="-120" y="160" width="200" height="60" as="geometry" />
        </mxCell>
        <mxCell id="a53vQvWttHW8f18Grv44-12" value="event" style="rounded=1;whiteSpace=wrap;html=1;fillColor=#dae8fc;gradientColor=#7ea6e0;strokeColor=#6c8ebf;glass=0;shadow=1;fontSize=16;align=center;fontStyle=2;horizontal=1;" parent="1" vertex="1">
          <mxGeometry x="-80" y="445" width="120" height="40" as="geometry" />
        </mxCell>
        <mxCell id="a53vQvWttHW8f18Grv44-13" value="" style="rounded=0;whiteSpace=wrap;html=1;fillColor=#fff2cc;gradientColor=#ffd966;strokeColor=#d6b656;shadow=1;" parent="1" vertex="1">
          <mxGeometry x="120" y="250" width="200" height="430" as="geometry" />
        </mxCell>
        <mxCell id="a53vQvWttHW8f18Grv44-14" value="rank" style="rounded=1;whiteSpace=wrap;html=1;fillColor=#dae8fc;gradientColor=#7ea6e0;strokeColor=#6c8ebf;glass=0;shadow=1;fontSize=16;align=center;fontStyle=2;horizontal=1;" parent="1" vertex="1">
          <mxGeometry x="157.5" y="265" width="120" height="40" as="geometry" />
        </mxCell>
        <mxCell id="a53vQvWttHW8f18Grv44-15" value="gold" style="rounded=1;whiteSpace=wrap;html=1;fillColor=#dae8fc;gradientColor=#7ea6e0;strokeColor=#6c8ebf;glass=0;shadow=1;fontSize=16;align=center;fontStyle=2;horizontal=1;" parent="1" vertex="1">
          <mxGeometry x="157.5" y="385" width="120" height="40" as="geometry" />
        </mxCell>
        <mxCell id="a53vQvWttHW8f18Grv44-16" value="team_country" style="rounded=1;whiteSpace=wrap;html=1;fillColor=#dae8fc;gradientColor=#7ea6e0;strokeColor=#6c8ebf;glass=0;shadow=1;fontSize=16;align=center;fontStyle=2;horizontal=1;" parent="1" vertex="1">
          <mxGeometry x="157.5" y="325" width="120" height="40" as="geometry" />
        </mxCell>
        <mxCell id="a53vQvWttHW8f18Grv44-17" value="MEDALS" style="rounded=1;whiteSpace=wrap;html=1;fontStyle=1;fillColor=#fff2cc;gradientColor=#ffd966;strokeColor=#d6b656;fontSize=17;" parent="1" vertex="1">
          <mxGeometry x="120" y="160" width="200" height="60" as="geometry" />
        </mxCell>
        <mxCell id="a53vQvWttHW8f18Grv44-18" value="silver" style="rounded=1;whiteSpace=wrap;html=1;fillColor=#dae8fc;gradientColor=#7ea6e0;strokeColor=#6c8ebf;glass=0;shadow=1;fontSize=16;align=center;fontStyle=2;horizontal=1;" parent="1" vertex="1">
          <mxGeometry x="157.5" y="445" width="120" height="40" as="geometry" />
        </mxCell>
        <mxCell id="a53vQvWttHW8f18Grv44-19" value="total" style="rounded=1;whiteSpace=wrap;html=1;fillColor=#dae8fc;gradientColor=#7ea6e0;strokeColor=#6c8ebf;glass=0;shadow=1;fontSize=16;align=center;fontStyle=2;horizontal=1;" parent="1" vertex="1">
          <mxGeometry x="162.5" y="565" width="120" height="40" as="geometry" />
        </mxCell>
        <mxCell id="a53vQvWttHW8f18Grv44-20" value="bronze" style="rounded=1;whiteSpace=wrap;html=1;fillColor=#dae8fc;gradientColor=#7ea6e0;strokeColor=#6c8ebf;glass=0;shadow=1;fontSize=16;align=center;fontStyle=2;horizontal=1;" parent="1" vertex="1">
          <mxGeometry x="162.5" y="505" width="120" height="40" as="geometry" />
        </mxCell>
        <mxCell id="a53vQvWttHW8f18Grv44-21" value="rank_by_total" style="rounded=1;whiteSpace=wrap;html=1;fillColor=#dae8fc;gradientColor=#7ea6e0;strokeColor=#6c8ebf;glass=0;shadow=1;fontSize=16;align=center;fontStyle=2;horizontal=1;" parent="1" vertex="1">
          <mxGeometry x="162.5" y="625" width="120" height="40" as="geometry" />
        </mxCell>
        <mxCell id="a53vQvWttHW8f18Grv44-22" value="" style="rounded=0;whiteSpace=wrap;html=1;fillColor=#fff2cc;gradientColor=#ffd966;strokeColor=#d6b656;shadow=1;" parent="1" vertex="1">
          <mxGeometry x="360" y="250" width="200" height="430" as="geometry" />
        </mxCell>
        <mxCell id="a53vQvWttHW8f18Grv44-23" value="name" style="rounded=1;whiteSpace=wrap;html=1;fillColor=#dae8fc;gradientColor=#7ea6e0;strokeColor=#6c8ebf;glass=0;shadow=1;fontSize=16;align=center;fontStyle=2;horizontal=1;" parent="1" vertex="1">
          <mxGeometry x="395" y="265" width="120" height="40" as="geometry" />
        </mxCell>
        <mxCell id="a53vQvWttHW8f18Grv44-24" value="country" style="rounded=1;whiteSpace=wrap;html=1;fillColor=#dae8fc;gradientColor=#7ea6e0;strokeColor=#6c8ebf;glass=0;shadow=1;fontSize=16;align=center;fontStyle=2;horizontal=1;" parent="1" vertex="1">
          <mxGeometry x="395" y="325" width="120" height="40" as="geometry" />
        </mxCell>
        <mxCell id="a53vQvWttHW8f18Grv44-25" value="discipline" style="rounded=1;whiteSpace=wrap;html=1;fillColor=#dae8fc;gradientColor=#7ea6e0;strokeColor=#6c8ebf;glass=0;shadow=1;fontSize=16;align=center;fontStyle=2;horizontal=1;" parent="1" vertex="1">
          <mxGeometry x="395" y="385" width="120" height="40" as="geometry" />
        </mxCell>
        <mxCell id="a53vQvWttHW8f18Grv44-26" value="COACHES" style="rounded=1;whiteSpace=wrap;html=1;fontStyle=1;fillColor=#fff2cc;gradientColor=#ffd966;strokeColor=#d6b656;fontSize=17;" parent="1" vertex="1">
          <mxGeometry x="360" y="160" width="200" height="60" as="geometry" />
        </mxCell>
        <mxCell id="a53vQvWttHW8f18Grv44-27" value="event" style="rounded=1;whiteSpace=wrap;html=1;fillColor=#dae8fc;gradientColor=#7ea6e0;strokeColor=#6c8ebf;glass=0;shadow=1;fontSize=16;align=center;fontStyle=2;horizontal=1;" parent="1" vertex="1">
          <mxGeometry x="395" y="445" width="120" height="40" as="geometry" />
        </mxCell>
        <mxCell id="a53vQvWttHW8f18Grv44-28" value="" style="rounded=0;whiteSpace=wrap;html=1;fillColor=#fff2cc;gradientColor=#ffd966;strokeColor=#d6b656;shadow=1;" parent="1" vertex="1">
          <mxGeometry x="600" y="250" width="200" height="430" as="geometry" />
        </mxCell>
        <mxCell id="a53vQvWttHW8f18Grv44-29" value="discipline" style="rounded=1;whiteSpace=wrap;html=1;fillColor=#dae8fc;gradientColor=#7ea6e0;strokeColor=#6c8ebf;glass=0;shadow=1;fontSize=16;align=center;fontStyle=2;horizontal=1;" parent="1" vertex="1">
          <mxGeometry x="640" y="265" width="120" height="40" as="geometry" />
        </mxCell>
        <mxCell id="a53vQvWttHW8f18Grv44-30" value="female" style="rounded=1;whiteSpace=wrap;html=1;fillColor=#dae8fc;gradientColor=#7ea6e0;strokeColor=#6c8ebf;glass=0;shadow=1;fontSize=16;align=center;fontStyle=2;horizontal=1;" parent="1" vertex="1">
          <mxGeometry x="640" y="325" width="120" height="40" as="geometry" />
        </mxCell>
        <mxCell id="a53vQvWttHW8f18Grv44-31" value="male" style="rounded=1;whiteSpace=wrap;html=1;fillColor=#dae8fc;gradientColor=#7ea6e0;strokeColor=#6c8ebf;glass=0;shadow=1;fontSize=16;align=center;fontStyle=2;horizontal=1;" parent="1" vertex="1">
          <mxGeometry x="640" y="385" width="120" height="40" as="geometry" />
        </mxCell>
        <mxCell id="a53vQvWttHW8f18Grv44-32" value="GENDER" style="rounded=1;whiteSpace=wrap;html=1;fontStyle=1;fillColor=#fff2cc;gradientColor=#ffd966;strokeColor=#d6b656;fontSize=17;" parent="1" vertex="1">
          <mxGeometry x="600" y="160" width="200" height="60" as="geometry" />
        </mxCell>
        <mxCell id="a53vQvWttHW8f18Grv44-33" value="total" style="rounded=1;whiteSpace=wrap;html=1;fillColor=#dae8fc;gradientColor=#7ea6e0;strokeColor=#6c8ebf;glass=0;shadow=1;fontSize=16;align=center;fontStyle=2;horizontal=1;" parent="1" vertex="1">
          <mxGeometry x="640" y="445" width="120" height="40" as="geometry" />
        </mxCell>
      </root>
    </mxGraphModel>
  </diagram>
</mxfile>
